<svg xmlns="http://www.w3.org/2000/svg" xmlns:xlink="http://www.w3.org/1999/xlink" version="1.1" x="0px" y="0px" viewBox="0 0 48 60" enable-background="new 0 0 48 48" xml:space="preserve">
    <g>
        <g>
            <path stroke="#bbb" fill="#bbb" d="M45.5,22.2H10c-1.1,0-2-0.9-2-2s0.9-2,2-2h35.6c1.1,0,2,0.9,2,2S46.6,22.2,45.5,22.2z"/>
        </g>
        <g>
            <path stroke="#bbb" fill="#bbb" d="M27.8,40c-1.1,0-2-0.9-2-2V2.5c0-1.1,0.9-2,2-2c1.1,0,2,0.9,2,2V38C29.7,39.1,28.8,40,27.8,40z"/>
        </g>
        <g>
            <path stroke="#bbb" fill="#bbb" d="M40.3,34.8c-0.5,0-1-0.2-1.4-0.6L13.8,9.1c-0.8-0.8-0.8-2,0-2.8s2-0.8,2.8,0l25.2,25.2c0.8,0.8,0.8,2,0,2.8    C41.3,34.6,40.8,34.8,40.3,34.8z"/>
        </g>
        <g>
            <path stroke="#bbb" fill="#bbb" d="M2.5,47.5c-0.5,0-1-0.2-1.4-0.6c-0.8-0.8-0.8-2,0-2.8L38.9,6.3c0.8-0.8,2-0.8,2.8,0s0.8,2,0,2.8L3.8,46.9    C3.5,47.3,3,47.5,2.5,47.5z"/>
        </g>
    </g>
    <text x="0" y="63" fill="#000000" font-size="5px" font-weight="bold" font-family="'Helvetica Neue', Helvetica, Arial-Unicode, Arial, Sans-serif">
        Created by Vectors Market
    </text>
    <text x="0" y="68" fill="#000000" font-size="5px" font-weight="bold" font-family="'Helvetica Neue', Helvetica, Arial-Unicode, Arial, Sans-serif">
        from the Noun Project
    </text>
</svg>
